<svg width="512" height="512" viewBox="0 0 512 512" xmlns="http://www.w3.org/2000/svg" role="img" aria-labelledby="travelLogoTitle travelLogoDesc">
  <title id="travelLogoTitle">Travel Compass Logo</title>
  <desc id="travelLogoDesc">Abstract compass with skyline, mountains, palm tree, and airplane representing travel.</desc>
  <defs>
    <linearGradient id="bgGradient" x1="0%" y1="0%" x2="100%" y2="100%">
      <stop offset="0%" stop-color="#d7f4ff" />
      <stop offset="100%" stop-color="#b1e4c6" />
    </linearGradient>
    <radialGradient id="glowGradient" cx="50%" cy="50%" r="60%">
      <stop offset="0%" stop-color="rgba(255,255,255,0.9)" />
      <stop offset="100%" stop-color="rgba(255,255,255,0)" />
    </radialGradient>
    <linearGradient id="accentGradient" x1="0%" y1="0%" x2="100%" y2="100%">
      <stop offset="0%" stop-color="#1d6fa3" />
      <stop offset="100%" stop-color="#0c3f5b" />
    </linearGradient>
    <linearGradient id="swooshGradient" x1="0%" y1="0%" x2="100%" y2="100%">
      <stop offset="0%" stop-color="#6bc7c2" />
      <stop offset="100%" stop-color="#f2c56b" />
    </linearGradient>
  </defs>
  <rect width="512" height="512" rx="120" fill="url(#bgGradient)" />
  <rect width="512" height="512" fill="url(#glowGradient)" />
  <g transform="translate(256 256)">
    <circle r="160" fill="white" opacity="0.25" />
    <path d="M0 -180 L14 -14 L180 0 L14 14 L0 180 L-14 14 L-180 0 L-14 -14 Z" fill="#9bd6d2" opacity="0.45" />
    <circle r="150" fill="none" stroke="url(#accentGradient)" stroke-width="22" />
    <g transform="translate(0,10)">
      <path d="M-80 30 L0 -110 L80 30 Z" fill="url(#accentGradient)" />
      <path d="M-72 26 L0 -80 L72 26 Z" fill="#0f3f5d" />
    </g>
    <g transform="translate(0,40)">
      <path d="M-80 30 Q-60 10 -40 30 T0 30 T40 30 T80 30 L80 60 L-80 60 Z" fill="#0f3f5d" />
      <path d="M-48 30 L-30 12 L-12 30 Z" fill="#1f6aa5" />
      <path d="M-8 30 L-8 14 L20 14 L20 30 Z" fill="#1f6aa5" />
      <rect x="28" y="20" width="30" height="10" rx="3" fill="#1f6aa5" />
    </g>
    <g transform="translate(-64,68)">
      <path d="M-28 20 Q-20 6 -6 6 Q8 6 16 20 L16 40 L-28 40 Z" fill="#1b9e96" />
      <path d="M-8 6 Q-10 -18 6 -36 Q20 -18 16 6" fill="#0f3f5d" />
    </g>
    <path d="M-130 80 Q-20 140 90 90" fill="none" stroke="url(#swooshGradient)" stroke-width="30" stroke-linecap="round" />
    <path d="M90 90 Q140 40 160 -10" fill="none" stroke="url(#swooshGradient)" stroke-width="26" stroke-linecap="round" />
    <path d="M170 -40 L210 -65 L210 -55 L240 -55 L240 -25 L210 -25 L210 -15 Z" fill="#0f3f5d" />
  </g>
</svg>
